<mxfile host="Electron" modified="2024-01-11T12:59:39.180Z" agent="Mozilla/5.0 (Windows NT 10.0; Win64; x64) AppleWebKit/537.36 (KHTML, like Gecko) draw.io/22.1.2 Chrome/114.0.5735.289 Electron/25.9.4 Safari/537.36" etag="M7q6jeFfG3YKIZOn8n9Y" version="22.1.2" type="device">
  <diagram name="Page-1" id="74b105a0-9070-1c63-61bc-23e55f88626e">
    <mxGraphModel dx="1416" dy="818" grid="1" gridSize="10" guides="1" tooltips="1" connect="1" arrows="1" fold="1" page="1" pageScale="1.5" pageWidth="1169" pageHeight="826" background="none" math="0" shadow="0">
      <root>
        <mxCell id="0" style=";html=1;" />
        <mxCell id="1" style=";html=1;" parent="0" />
        <mxCell id="10b056a9c633e61c-30" value="Title" style="text;strokeColor=none;fillColor=none;html=1;fontSize=24;fontStyle=1;verticalAlign=middle;align=center;" parent="1" vertex="1">
          <mxGeometry x="80" y="40" width="1590" height="40" as="geometry" />
        </mxCell>
        <mxCell id="To2LvBZBczLgQQMTYS_E-3" value="&lt;b&gt;&lt;font color=&quot;#ff3333&quot; style=&quot;font-size: 31px;&quot;&gt;LLMClinet&lt;/font&gt;&lt;/b&gt;" style="whiteSpace=wrap;html=1;fillColor=#d5e8d4;strokeColor=#82b366;" parent="1" vertex="1">
          <mxGeometry x="350" y="340" width="220" height="120" as="geometry" />
        </mxCell>
        <mxCell id="To2LvBZBczLgQQMTYS_E-5" value="&lt;font color=&quot;#ff3333&quot; size=&quot;1&quot; style=&quot;&quot;&gt;&lt;b style=&quot;font-size: 20px;&quot;&gt;ChatGPT3.5/4.0&lt;/b&gt;&lt;/font&gt;" style="rounded=0;whiteSpace=wrap;html=1;fillColor=#d5e8d4;strokeColor=#82b366;" parent="1" vertex="1">
          <mxGeometry x="757" y="190" width="203" height="90" as="geometry" />
        </mxCell>
        <mxCell id="To2LvBZBczLgQQMTYS_E-6" value="&lt;span style=&quot;font-size: 20px;&quot;&gt;&lt;b&gt;&lt;font color=&quot;#ff0000&quot;&gt;LLAMA&lt;/font&gt;&lt;/b&gt;&lt;/span&gt;" style="rounded=0;whiteSpace=wrap;html=1;fillColor=#d5e8d4;strokeColor=#82b366;" parent="1" vertex="1">
          <mxGeometry x="757" y="300" width="203" height="90" as="geometry" />
        </mxCell>
        <mxCell id="To2LvBZBczLgQQMTYS_E-7" value="&lt;span style=&quot;font-size: 20px;&quot;&gt;&lt;b&gt;&lt;font color=&quot;#ff3333&quot;&gt;Bard&lt;/font&gt;&lt;/b&gt;&lt;/span&gt;" style="rounded=0;whiteSpace=wrap;html=1;fillColor=#d5e8d4;strokeColor=#82b366;" parent="1" vertex="1">
          <mxGeometry x="757" y="410" width="203" height="90" as="geometry" />
        </mxCell>
        <mxCell id="To2LvBZBczLgQQMTYS_E-8" value="" style="swimlane;startSize=0;fillColor=#99FF99;strokeColor=#6c8ebf;fontSize=23;" parent="1" vertex="1">
          <mxGeometry x="740" y="130" width="550" height="430" as="geometry" />
        </mxCell>
        <mxCell id="To2LvBZBczLgQQMTYS_E-12" value="Global大语言模型" style="text;html=1;align=center;verticalAlign=middle;resizable=0;points=[];autosize=1;strokeColor=none;fillColor=none;fontStyle=1;fontSize=29;" parent="1" vertex="1">
          <mxGeometry x="1000" y="378" width="260" height="50" as="geometry" />
        </mxCell>
        <mxCell id="To2LvBZBczLgQQMTYS_E-14" value="" style="swimlane;startSize=0;" parent="1" vertex="1">
          <mxGeometry x="740" y="600" width="550" height="240" as="geometry" />
        </mxCell>
        <mxCell id="To2LvBZBczLgQQMTYS_E-13" value="&lt;span style=&quot;font-size: 20px;&quot;&gt;&lt;b&gt;&lt;font color=&quot;#ff0000&quot;&gt;Transform类型自训练&lt;/font&gt;&lt;/b&gt;&lt;/span&gt;" style="rounded=0;whiteSpace=wrap;html=1;fillColor=#d5e8d4;strokeColor=#82b366;" parent="To2LvBZBczLgQQMTYS_E-14" vertex="1">
          <mxGeometry x="17" y="20" width="203" height="90" as="geometry" />
        </mxCell>
        <mxCell id="To2LvBZBczLgQQMTYS_E-15" value="Private大语言模型" style="text;html=1;align=center;verticalAlign=middle;resizable=0;points=[];autosize=1;strokeColor=none;fillColor=none;fontStyle=1;fontSize=28;" parent="To2LvBZBczLgQQMTYS_E-14" vertex="1">
          <mxGeometry x="260" y="80" width="260" height="50" as="geometry" />
        </mxCell>
      </root>
    </mxGraphModel>
  </diagram>
</mxfile>
